<svg xmlns="http://www.w3.org/2000/svg" version="1.1" xmlns:xlink="http://www.w3.org/1999/xlink" xmlns:svgjs="http://svgjs.dev/svgjs" width="1000" height="1125" viewBox="0 0 1000 1125"><g transform="matrix(1,0,0,1,1.7053025658242404e-13,0)"><svg viewBox="0 0 320 360" data-background-color="#8dbdff" preserveAspectRatio="xMidYMid meet" height="1125" width="1000" xmlns="http://www.w3.org/2000/svg" xmlns:xlink="http://www.w3.org/1999/xlink"><g id="tight-bounds" transform="matrix(1,0,0,1,0,0)"><svg viewBox="0 0 320 360" height="360" width="320"><g><svg></svg></g><g><svg viewBox="0 0 320 360" height="360" width="320"><g><path xmlns="http://www.w3.org/2000/svg" d="M20.961 227.22l3.726 4.658-1.863-6.056c-0.466-2.795-3.726 0.466-1.863 1.398M25.153 224.425c1.397 2.329 2.795 4.658 2.795 6.987 0 3.261 2.795 4.658 5.123 5.589-3.261-3.726-5.124-13.974-7.918-12.576M204.017 26.929c7.918 0 15.371-0.932 23.756 0.931 20.495 5.124 37.729 15.371 49.374 29.811l32.606 52.169c1.397 13.042 4.192 27.482 3.726 43.319 3.261 0 2.795-4.658 6.521-5.59-3.726 9.316-5.59 20.961-6.521 34.469-2.329-7.453 0-18.632 0.466-24.687-3.261 5.124-5.124 1.397-5.124-0.932 0.466-3.726-1.397-3.261-2.795-4.658-5.124-4.658-8.384-9.782-12.11-17.7 2.329-6.055 2.795-14.905-4.658-19.563-2.329-1.397-5.124-3.726-6.521-7.453-1.863-5.124-5.124-11.179-4.193-19.097 0.466-2.329-6.987 5.124-11.179 1.863-18.166-12.576-36.332-27.016-58.224-39.127-11.645 0-20.029-4.192-24.221-9.316-3.726-4.658-0.932-10.713 4.658-11.179 3.261 0 6.987-0.932 9.782 0.932 0.466-1.863 2.329-4.192 4.657-4.192M157.904 16.215l0.932 0.466c4.658 0.932 6.987 7.453 12.11 5.124 0 3.261 0.466 6.521-0.466 8.85-1.397 3.726-5.59 3.726-8.85 3.726-31.208-1.863-49.374 11.179-68.471 22.358-5.124 3.261-10.713 5.59-14.906 9.782-20.029 18.632-41.921 35.866-47.045 70.335l-4.192 38.195c-0.466 4.192-5.124 8.384-4.192 13.508l3.26 22.824c-3.261-3.261-5.124 0.932-4.192 2.795 0.466 1.397 2.329 6.055 5.124 1.863 3.726 6.987 7.453 20.495 12.576 26.55 15.837 18.632 36.332 35.4 53.101 52.169 4.192-0.932 7.453-0.932 8.384-3.727 1.397 2.795-1.397 5.59-3.726 6.056 7.453 4.658 15.837 8.85 27.016 9.781 14.44 0.932 27.948 3.261 40.524 6.522 6.521-1.863 13.042-2.795 20.029-3.261 2.329 0 3.726-3.726 6.521-4.658l0.466-4.658c2.795 4.192 2.329-1.397 0.466-4.192 3.261 2.795 4.192 5.124 5.589 6.987 0-1.397 3.726-6.521 3.727-0.466l0.931-6.055c1.397-0.932 1.863 5.124 3.261 0.931 1.397-4.192 4.192-0.932 6.987-2.329-0.932 1.863-0.466 5.59 2.794 3.261l3.727-3.261c2.329 5.59 6.055 3.261 7.918 2.329 20.495-13.042 40.99-28.413 60.553-43.784l-0.466 6.055 2.329-7.453c2.329 2.329 4.192 0.466 5.124-0.931 2.795-4.658 6.521-9.316 12.577-13.508-7.453 20.029-16.303 35.866-27.482 48.908l-4.658 5.59c0 3.261-0.932 7.453-4.658 7.918-1.863 0.466-5.59-0.932-8.384 1.863-1.397 1.863 3.261 5.59-0.466 2.795-3.261-2.329-6.521 0-10.248 0.932-2.795 0.932 1.863 3.726 2.795 5.589 0.932 1.863 1.863 3.726 1.398 6.056l-5.124-5.59c-6.055 3.261-9.782 9.316-14.906 13.974-2.329 1.863-1.397 5.124-1.397 7.918-3.261 0-6.987-0.932-8.85 0.932-1.397 1.863-0.932 4.658-0.932 7.453-4.658-0.466-5.124-7.453-9.315-6.056-4.192 0.932-8.85 1.397-12.577 3.727 2.795 5.59-4.658 2.329-3.726 3.26-6.987-4.192-13.042-7.453-20.495-4.658-15.837-5.124-35.4-2.795-49.84-0.931 0-2.329 0.466-4.658-0.466-5.124-0.932 2.329-3.726 1.397-3.26 1.397-8.85-6.055-17.7-9.782-27.016-14.905-8.384 0.932-16.303-3.261-18.632-5.59-6.521-6.055-13.974-2.795-20.029-4.192-13.042-3.261-17.7-16.769-19.098-26.084-0.932-4.658-4.658-6.521-6.055-6.056-6.055-19.563-15.371-37.263-22.824-55.429-1.863-4.658-1.397-9.316-1.397-14.44 2.329 0.932 4.658 0.466 4.192-2.794-2.329-15.371-7.918-27.016-13.974-38.195 3.261-15.837 3.726-34.469 11.179-48.443 6.521-12.576 18.632-19.098 27.016-29.811 2.795-3.726 2.795-8.85 5.59-12.11 9.316-9.316 18.632-19.098 28.879-27.482 4.658-3.726 10.247 0 17.234-1.397 2.329-8.384 11.645-15.837 20.495-13.508 3.726 0.932 11.179-8.85 13.508-9.782 3.726-1.397 1.863 3.726 1.863 6.987 8.85-6.987 20.961-10.713 32.14-14.906" fill="#0080ff" fill-rule="nonzero" stroke="none" stroke-width="1" stroke-linecap="butt" stroke-linejoin="miter" stroke-miterlimit="10" stroke-dasharray="" stroke-dashoffset="0" font-family="none" font-weight="none" font-size="none" text-anchor="none" style="mix-blend-mode: normal" data-fill-palette-color="tertiary"></path></g><g transform="matrix(1,0,0,1,64,127.17214939361898)"><svg viewBox="0 0 192 105.65570121276205" height="105.65570121276205" width="192"><g><svg viewBox="0 0 192 105.65570121276205" height="105.65570121276205" width="192"><g><svg viewBox="0 0 192 105.65570121276205" height="105.65570121276205" width="192"><g transform="matrix(1,0,0,1,0,63.86025909790336)"><svg viewBox="0 0 192 41.795442114858695" height="41.795442114858695" width="192"><g><svg viewBox="0 0 192 41.795442114858695" height="41.795442114858695" width="192"><g><svg viewBox="0 0 192 41.795442114858695" height="41.795442114858695" width="192"><g transform="matrix(1,0,0,1,0,0)"><svg width="192" viewBox="7.800000190734863 -41.650001525878906 274.2200012207031 59.70000076293945" height="41.795442114858695" data-palette-color="#0080ff"><path d="M8.4-2.6L8.4-2.6Q9.15-4.25 10.2-6.85 11.25-9.45 12.4-12.48 13.55-15.5 14.75-18.68 15.95-21.85 17-24.7 18.05-27.55 18.82-29.8 19.6-32.05 19.95-33.25L19.95-33.25Q16.8-31.95 14.55-29.3 12.3-26.65 11.15-22.65L11.15-22.65Q10-23.05 9.05-24.08 8.1-25.1 7.8-26.65L7.8-26.65Q8.3-28.95 9.68-30.85 11.05-32.75 13.15-34.1 15.25-35.45 18-36.18 20.75-36.9 23.9-36.9L23.9-36.9Q27.9-36.9 31.25-35.73 34.6-34.55 37-32.45 39.4-30.35 40.75-27.4 42.1-24.45 42.1-20.85L42.1-20.85Q42.1-15.95 40.3-11.5 38.5-7.05 35.43-3.65 32.35-0.25 28.3 1.78 24.25 3.8 19.8 3.8L19.8 3.8Q15.7 3.8 12.78 2.18 9.85 0.55 8.4-2.6ZM26.05-34.4L26.05-34.4Q23.55-34.4 21.3-33.7L21.3-33.7Q23.5-32.9 24.95-32.02 26.4-31.15 26.95-30.65L26.95-30.65Q26.55-30.1 25.78-28.7 25-27.3 23.98-25.3 22.95-23.3 21.8-20.93 20.65-18.55 19.55-16.05L19.55-16.05Q16.7-9.7 15.43-6.05 14.15-2.4 14.15-1L14.15-1Q14.85-0.75 15.85-0.65 16.85-0.55 18-0.55L18-0.55Q22.05-0.55 25.68-2.43 29.3-4.3 32.02-7.45 34.75-10.6 36.33-14.78 37.9-18.95 37.9-23.55L37.9-23.55Q37.9-28.7 34.7-31.55 31.5-34.4 26.05-34.4ZM62.25-7.75L62.25-7.75Q61.1-4.1 59.95-1.1 58.8 1.9 57.5 4.42 56.2 6.95 54.7 9.08 53.2 11.2 51.4 13.1L51.4 13.1Q49.1 15.5 46.65 16.78 44.2 18.05 41.75 18.05L41.75 18.05Q40.5 18.05 39.27 17.78 38.05 17.5 36.97 17.03 35.9 16.55 35.07 15.93 34.25 15.3 33.9 14.6L33.9 14.6Q33.9 14 34.6 13.55L34.6 13.55Q35.2 14.1 35.6 14.4 36 14.7 36.37 14.9 36.75 15.1 37.17 15.15 37.6 15.2 38.15 15.2L38.15 15.2Q41 15.2 43.72 13.53 46.45 11.85 48.87 8.78 51.3 5.7 53.3 1.33 55.3-3.05 56.7-8.45L56.7-8.45Q56.05-7.45 55.1-6 54.15-4.55 53-3.13 51.85-1.7 50.62-0.55 49.4 0.6 48.25 1L48.25 1Q47.45 0.95 46.57 0.68 45.7 0.4 44.92-0.1 44.15-0.6 43.55-1.3 42.95-2 42.75-2.9L42.75-2.9Q42.75-4.35 42.85-5.23 42.95-6.1 43.2-7.15L43.2-7.15Q43.65-9.05 44.52-11.45 45.4-13.85 46.57-16.18 47.75-18.5 49.17-20.53 50.6-22.55 52.15-23.7L52.15-23.7Q52.55-23.7 53.15-23.63 53.75-23.55 54.4-23.35 55.05-23.15 55.65-22.88 56.25-22.6 56.7-22.15L56.7-22.15Q56.15-21.65 54.3-18.8 52.45-15.95 50.2-10.6L50.2-10.6Q49.95-10.05 49.6-9 49.25-7.95 48.92-6.8 48.6-5.65 48.35-4.55 48.1-3.45 48.1-2.8L48.1-2.8Q48.1-2.4 48.22-2.2 48.35-2 48.45-1.9L48.45-1.9Q49.35-2.05 50.85-3.38 52.35-4.7 54.25-7.5L54.25-7.5Q55.45-9.3 56.45-11.08 57.45-12.85 58.42-14.65 59.4-16.45 60.45-18.35 61.5-20.25 62.7-22.25L62.7-22.25Q63.35-22.25 64.1-22.1 64.85-21.95 65.55-21.73 66.25-21.5 66.77-21.23 67.3-20.95 67.55-20.65L67.55-20.65Q66-17.35 64.65-14.2 63.3-11.05 62.25-7.75ZM73.25-9.3L73.25-9.3Q71.7-9.3 70.77-10.18 69.85-11.05 69.85-12.6L69.85-12.6Q69.85-12.85 69.95-13.35 70.05-13.85 70.15-14.1L70.15-14.1Q71-13.95 71.75-13.93 72.5-13.9 73.7-13.9L73.7-13.9Q76.25-13.9 78.47-14.05 80.7-14.2 82.5-14.4 84.3-14.6 85.6-14.75 86.9-14.9 87.6-14.9L87.6-14.9Q88.55-14.9 89.27-13.75 90-12.6 90.35-10.45L90.35-10.45Q89.1-10.6 88.3-10.65 87.5-10.7 86.9-10.7L86.9-10.7Q84.75-10.7 82.9-10.48 81.05-10.25 79.4-10 77.75-9.75 76.25-9.53 74.75-9.3 73.25-9.3ZM94.64-2.05L94.64-2.05Q94.64-3.05 94.87-4.85 95.09-6.65 95.47-8.75 95.84-10.85 96.32-13.05 96.79-15.25 97.29-17L97.29-17Q97.94-19.35 99.32-20.63 100.69-21.9 102.74-21.9L102.74-21.9Q103.84-21.9 104.92-21.55 105.99-21.2 106.19-20.65L106.19-20.65Q104.74-19.45 103.87-17.68 102.99-15.9 102.47-13.88 101.94-11.85 101.67-9.73 101.39-7.6 101.09-5.75L101.09-5.75Q102.74-7.95 104.22-9.73 105.69-11.5 106.84-12.55L106.84-12.55Q108.39-14 108.94-14.98 109.49-15.95 109.89-17.1L109.89-17.1Q110.19-18 110.62-19.2 111.04-20.4 112.04-21.4L112.04-21.4Q112.24-21.45 112.89-21.45L112.89-21.45Q113.39-21.45 113.97-21.4 114.54-21.35 115.04-21.2 115.54-21.05 115.89-20.85 116.24-20.65 116.29-20.35L116.29-20.35Q115.49-19.3 114.79-17.07 114.09-14.85 113.54-12.2 112.99-9.55 112.54-6.93 112.09-4.3 111.74-2.5L111.74-2.5Q111.94-2.6 112.64-3.3 113.34-4 114.22-5.05 115.09-6.1 116.07-7.35 117.04-8.6 117.79-9.8L117.79-9.8Q118.74-11.25 119.37-12.53 119.99-13.8 120.47-15.25 120.94-16.7 121.34-18.48 121.74-20.25 122.19-22.7L122.19-22.7Q122.49-23.1 123.52-23.38 124.54-23.65 125.39-23.65L125.39-23.65Q126.14-23.65 126.49-23.4L126.49-23.4Q126.24-20.6 125.57-18.4 124.89-16.2 123.74-14.13 122.59-12.05 120.89-9.98 119.19-7.9 116.89-5.45L116.89-5.45Q115.94-4.45 114.82-3.25 113.69-2.05 112.62-1.03 111.54 0 110.62 0.7 109.69 1.4 109.19 1.4L109.19 1.4Q108.04 1.4 107.29 0.5 106.54-0.4 106.54-1.8L106.54-1.8Q106.54-3.25 106.67-4.33 106.79-5.4 107.09-6.6L107.09-6.6Q107.39-7.7 107.57-8.45 107.74-9.2 107.87-9.75 107.99-10.3 108.04-10.7 108.09-11.1 108.14-11.5L108.14-11.5Q107.74-11.3 107.09-10.68 106.44-10.05 105.74-9.22 105.04-8.4 104.34-7.55 103.64-6.7 103.19-6.1L103.19-6.1Q102.24-4.8 101.54-3.8 100.84-2.8 100.22-1.9 99.59-1 98.99-0.08 98.39 0.85 97.59 1.9L97.59 1.9Q95.99 1.4 95.32 0.4 94.64-0.6 94.64-2.05ZM143.84-20.7L143.84-20.7Q143.64-17.6 142.74-15.38 141.84-13.15 140.17-11.48 138.49-9.8 136.09-8.45 133.69-7.1 130.49-5.85L130.49-5.85Q130.49-5.55 130.47-5.23 130.44-4.9 130.44-4.55L130.44-4.55Q130.44-3.9 130.54-3.2 130.64-2.5 130.89-1.9 131.14-1.3 131.59-0.93 132.04-0.55 132.74-0.55L132.74-0.55Q134.09-0.55 135.39-1.15 136.69-1.75 137.87-2.63 139.04-3.5 140.07-4.53 141.09-5.55 141.89-6.4L141.89-6.4Q142.39-5.95 142.74-5.55L142.74-5.55Q140.49-2.55 137.82-0.58 135.14 1.4 132.74 1.95L132.74 1.95Q129.29 1.55 127.37-0.58 125.44-2.7 125.44-5.7L125.44-5.7Q125.44-7.75 126.02-9.88 126.59-12 127.62-13.98 128.64-15.95 130.02-17.7 131.39-19.45 132.97-20.75 134.54-22.05 136.22-22.8 137.89-23.55 139.54-23.55L139.54-23.55Q141.84-23.25 143.84-20.7ZM140.39-19.05L140.39-19.05Q139.04-18.85 137.59-17.95 136.14-17.05 134.87-15.55 133.59-14.05 132.54-12.05 131.49-10.05 130.89-7.75L130.89-7.75Q134.89-9.75 137.54-12.68 140.19-15.6 140.39-19.05ZM150.74 0.35L150.74 0.35Q153.04-1.2 155.24-3.63 157.44-6.05 159.24-8.88 161.04-11.7 162.29-14.75 163.54-17.8 163.99-20.6L163.99-20.6Q163.99-21.2 163.34-21.4L163.34-21.4Q162.64-21.4 161.41-20.18 160.19-18.95 158.71-17.05 157.24-15.15 155.71-12.8 154.19-10.45 152.94-8.13 151.69-5.8 150.81-3.78 149.94-1.75 149.84-0.5L149.84-0.5Q149.34-0.5 148.99-1.5L148.99-1.5Q148.89-1.75 148.64-2.02 148.39-2.3 147.84-2.7L147.84-2.7Q147.59-2.9 147.34-3.18 147.09-3.45 146.99-3.65L146.99-3.65Q146.79-4.05 146.79-4.95L146.79-4.95Q146.79-7.9 147.54-11.6 148.29-15.3 149.51-19.15 150.74-23 152.39-26.73 154.04-30.45 155.81-33.55 157.59-36.65 159.39-38.8 161.19-40.95 162.79-41.65L162.79-41.65Q163.29-41.5 163.99-41.15 164.69-40.8 165.39-40.35 166.09-39.9 166.71-39.45 167.34-39 167.64-38.65L167.64-38.65Q162.14-34.2 158.11-27.23 154.09-20.25 151.54-10.75L151.54-10.75Q152.94-13.35 154.69-15.78 156.44-18.2 158.16-20.05 159.89-21.9 161.46-23 163.04-24.1 164.09-24.1L164.09-24.1Q164.89-23.9 165.64-23.4 166.39-22.9 166.99-22.18 167.59-21.45 167.99-20.63 168.39-19.8 168.49-18.9L168.49-18.9Q168.44-16.8 167.76-14.43 167.09-12.05 165.96-9.75 164.84-7.45 163.41-5.35 161.99-3.25 160.41-1.68 158.84-0.1 157.26 0.85 155.69 1.8 154.29 1.8L154.29 1.8Q153.69 1.8 153.06 1.68 152.44 1.55 151.91 1.33 151.39 1.1 151.06 0.85 150.74 0.6 150.74 0.35ZM186.79-19.9L186.79-19.9Q186.74-18.95 186.46-17.93 186.19-16.9 185.79-16.07 185.39-15.25 184.94-14.7 184.49-14.15 184.09-14.15L184.09-14.15Q183.54-14.2 183.44-14.9L183.44-14.9Q183.44-15.05 183.56-15.38 183.69-15.7 183.84-16.1 183.99-16.5 184.11-16.9 184.24-17.3 184.24-17.6L184.24-17.6Q184.24-18.3 183.91-18.78 183.59-19.25 183.04-19.25L183.04-19.25Q181.04-19.25 179.99-16.75 178.94-14.25 178.94-9.4L178.94-9.4Q178.94-8.9 178.99-8.8L178.99-8.8Q180.04-8.85 180.86-8.88 181.69-8.9 182.49-8.9L182.49-8.9Q182.54-8.8 182.54-8.5L182.54-8.5Q182.54-8.05 182.34-7.85L182.34-7.85Q181.19-7.6 180.51-7.43 179.84-7.25 179.49-7.1 179.14-6.95 179.06-6.78 178.99-6.6 178.99-6.3L178.99-6.3Q178.99-5.9 179.01-5.5 179.04-5.1 179.04-4.5L179.04-4.5Q179.04-0.3 176.76 2.25 174.49 4.8 170.44 5.2L170.44 5.2Q169.74 5.15 168.99 4.8 168.24 4.45 167.56 3.9 166.89 3.35 166.39 2.68 165.89 2 165.69 1.3L165.69 1.3Q165.69-0.6 166.49-2.33 167.29-4.05 168.66-5.38 170.04-6.7 171.91-7.53 173.79-8.35 175.99-8.5L175.99-8.5Q175.99-9.75 175.74-10.95 175.49-12.15 175.21-13.28 174.94-14.4 174.69-15.48 174.44-16.55 174.44-17.6L174.44-17.6Q174.44-18.95 174.99-20.28 175.54-21.6 176.44-22.73 177.34-23.85 178.54-24.65 179.74-25.45 181.04-25.75L181.04-25.75Q181.59-25.6 182.51-24.88 183.44-24.15 184.34-23.25 185.24-22.35 185.94-21.43 186.64-20.5 186.79-19.9ZM170.29 2.9L170.29 2.9Q171.49 2.4 172.56 1.45 173.64 0.5 174.44-0.7 175.24-1.9 175.71-3.25 176.19-4.6 176.19-5.9L176.19-5.9Q175.19-5.75 173.99-4.98 172.79-4.2 171.74-3.13 170.69-2.05 169.99-0.9 169.29 0.25 169.29 1.1L169.29 1.1Q169.29 2.2 170.29 2.9ZM192.63-19.15L189.78-19.15Q189.53-19.45 189.33-20.43 189.13-21.4 189.13-22.1L189.13-22.1Q190.43-22 191.63-21.93 192.83-21.85 193.83-21.8L193.83-21.8Q194.58-23.3 195.46-24.78 196.33-26.25 197.16-27.48 197.98-28.7 198.71-29.55 199.43-30.4 199.83-30.65L199.83-30.65Q200.33-30.65 201.11-30.48 201.88-30.3 202.68-30.03 203.48-29.75 204.13-29.45 204.78-29.15 205.03-28.85L205.03-28.85Q203.53-26.95 202.46-25.33 201.38-23.7 200.13-21.6L200.13-21.6Q201.13-21.6 202.16-21.65 203.18-21.7 204.23-21.8L204.23-21.8Q204.48-21.55 204.63-21.18 204.78-20.8 204.78-20.4L204.78-20.4Q202.33-19.5 198.83-19.4L198.83-19.4Q197.58-17 196.61-14.63 195.63-12.25 194.96-10.05 194.28-7.85 193.91-5.9 193.53-3.95 193.53-2.4L193.53-2.4Q193.53-0.2 195.18 0.05L195.18 0.05Q196.68-0.15 198.03-0.7 199.38-1.25 200.43-2.1L200.43-2.1Q200.73-1.65 200.78-1.35L200.78-1.35Q200.48-0.9 199.76-0.3 199.03 0.3 198.18 0.88 197.33 1.45 196.53 1.85 195.73 2.25 195.33 2.3L195.33 2.3Q194.08 2.25 192.83 1.75 191.58 1.25 190.56 0.5 189.53-0.25 188.88-1.18 188.23-2.1 188.23-3L188.23-3Q188.23-4.2 188.56-6.03 188.88-7.85 189.48-10 190.08-12.15 190.88-14.5 191.68-16.85 192.63-19.15L192.63-19.15ZM218.03-1.1L218.03-1.1Q217.08-1.9 216.76-3.1 216.43-4.3 216.43-5.15L216.43-5.15Q216.43-6.2 216.68-6.95L216.68-6.95Q216.48-6.95 215.78-6.15 215.08-5.35 214.26-4.25 213.43-3.15 212.63-2.1 211.83-1.05 211.43-0.55L211.43-0.55Q210.78 0.15 210.21 0.55 209.63 0.95 209.28 1L209.28 1Q208.48 0.95 207.61 0.68 206.73 0.4 205.96-0.1 205.18-0.6 204.61-1.3 204.03-2 203.83-2.9L203.83-2.9Q203.83-4.3 203.91-5.2 203.98-6.1 204.23-7.15L204.23-7.15Q204.68-9.05 205.56-11.45 206.43-13.85 207.58-16.18 208.73-18.5 210.16-20.53 211.58-22.55 213.18-23.7L213.18-23.7Q213.63-23.7 214.23-23.63 214.83-23.55 215.46-23.35 216.08-23.15 216.66-22.88 217.23-22.6 217.63-22.15L217.63-22.15Q217.18-21.65 215.36-18.8 213.53-15.95 211.28-10.6L211.28-10.6Q211.03-10.05 210.68-9 210.33-7.95 209.98-6.8 209.63-5.65 209.41-4.55 209.18-3.45 209.18-2.8L209.18-2.8Q209.18-2.4 209.31-2.2 209.43-2 209.53-1.9L209.53-1.9Q210.28-2.2 211.43-3.55 212.58-4.9 214.63-7.7L214.63-7.7Q215.13-8.4 215.81-9.3 216.48-10.2 217.18-11.23 217.88-12.25 218.51-13.35 219.13-14.45 219.53-15.55L219.53-15.55Q219.73-16.15 220.06-16.98 220.38-17.8 220.86-18.7 221.33-19.6 221.96-20.53 222.58-21.45 223.43-22.25L223.43-22.25Q224.08-22.25 224.83-22.1 225.58-21.95 226.26-21.73 226.93-21.5 227.43-21.23 227.93-20.95 228.18-20.65L228.18-20.65Q227.28-18.45 226.18-16.3 225.08-14.15 224.13-12.08 223.18-10 222.53-7.95 221.88-5.9 221.88-3.95L221.88-3.95Q221.88-2.9 222.06-2.13 222.23-1.35 222.43-0.83 222.63-0.3 222.81 0.05 222.98 0.4 222.98 0.65L222.98 0.65Q222.98 0.7 222.88 0.8L222.88 0.8Q222.83 0.85 222.78 0.85L222.78 0.85Q222.43 0.85 221.88 0.7 221.33 0.55 220.66 0.28 219.98 0 219.31-0.35 218.63-0.7 218.03-1.1ZM239.83-23.35L239.83-23.35Q240.83-23.35 242.13-22.75 243.43-22.15 244.43-21.2L244.43-21.2Q244.18-23.2 243.8-24.98 243.43-26.75 242.7-28.65 241.98-30.55 240.78-32.8 239.58-35.05 237.78-37.95L237.78-37.95Q237.93-38.4 238.45-39 238.98-39.6 239.65-40.13 240.33-40.65 241.05-41.05 241.78-41.45 242.43-41.55L242.43-41.55Q243.83-40 245.08-37.68 246.33-35.35 247.28-32.68 248.23-30 248.75-27.15 249.28-24.3 249.28-21.7L249.28-21.7Q249.28-19.1 248.7-16.35 248.13-13.6 247.1-10.98 246.08-8.35 244.73-6 243.38-3.65 241.8-1.8 240.23 0.05 238.53 1.23 236.83 2.4 235.13 2.7L235.13 2.7Q231.68 2.3 229.85 0.48 228.03-1.35 228.03-4.55L228.03-4.55Q228.03-6.25 228.55-8.25 229.08-10.25 229.95-12.23 230.83-14.2 232-16.07 233.18-17.95 234.5-19.45 235.83-20.95 237.18-22 238.53-23.05 239.83-23.35ZM234.73 0.7L234.73 0.7Q236.48 0.1 238.23-1.95 239.98-4 241.38-6.78 242.78-9.55 243.65-12.73 244.53-15.9 244.53-18.85L244.53-18.85Q244.53-19.7 244.53-19.9 244.53-20.1 244.48-20.3L244.48-20.3Q243.28-19.8 241.93-18.6 240.58-17.4 239.23-15.83 237.88-14.25 236.68-12.4 235.48-10.55 234.53-8.7 233.58-6.85 233.03-5.15 232.48-3.45 232.48-2.15L232.48-2.15Q232.48 0.35 234.73 0.7ZM250.63-3.35L250.63-3.35Q250.63-3.8 250.7-4.48 250.78-5.15 250.98-6.28 251.18-7.4 251.5-9 251.83-10.6 252.33-12.85L252.33-12.85Q252.43-13.35 252.78-14.45 253.13-15.55 253.7-16.78 254.28-18 255.1-19.15 255.93-20.3 257.08-20.85L257.08-20.85Q257.93-20.65 259.33-19.83 260.73-19 261.73-17.55L261.73-17.55Q260.58-16.25 259.8-14.95 259.03-13.65 258.4-12.25 257.78-10.85 257.25-9.35 256.73-7.85 256.08-6.2L256.08-6.2Q255.53-4.8 255.08-3.33 254.63-1.85 254.58-0.75L254.58-0.75Q254.58 0.15 254.55 0.53 254.53 0.9 254.28 0.9L254.28 0.9Q254.08 0.9 253.48 0.65 252.88 0.4 252.25-0.13 251.63-0.65 251.13-1.45 250.63-2.25 250.63-3.35ZM260.18-25.05L260.18-25.05Q260.18-25.35 260.33-25.95L260.33-25.95Q260.08-26.2 259.9-26.7 259.73-27.2 259.73-27.6L259.73-27.6Q259.73-28.05 259.85-28.83 259.98-29.6 260.18-30.5 260.38-31.4 260.68-32.38 260.98-33.35 261.28-34.15L261.28-34.15Q261.88-34.15 262.75-33.83 263.63-33.5 264.53-32.98 265.43-32.45 266.18-31.83 266.93-31.2 267.33-30.65L267.33-30.65Q266.78-30.1 265.88-29.13 264.98-28.15 264.13-27.08 263.28-26 262.58-25.05 261.88-24.1 261.68-23.7L261.68-23.7Q261.08-23.8 260.63-24.23 260.18-24.65 260.18-25.05ZM268.27 1.75L268.27 1.75Q265.42 1.45 263.72-0.75 262.02-2.95 262.02-6.35L262.02-6.35Q262.02-8.35 262.62-10.5 263.22-12.65 264.32-14.68 265.42-16.7 266.92-18.5 268.42-20.3 270.17-21.6L270.17-21.6Q272.92-23.65 275.32-23.65L275.32-23.65Q276.92-22.8 278.47-20.1L278.47-20.1Q278.72-20.1 278.92-20.13 279.12-20.15 279.37-20.15L279.37-20.15Q282.02-20.15 282.02-15.45L282.02-15.45Q282.02-12.3 281-9.47 279.97-6.65 278.15-4.35 276.32-2.05 273.8-0.48 271.27 1.1 268.27 1.75ZM270.82-14L270.82-14Q269.97-12.85 269.22-11.5 268.47-10.15 267.92-8.78 267.37-7.4 267.07-6.13 266.77-4.85 266.77-3.85L266.77-3.85Q266.77-2.65 267.17-1.55 267.57-0.45 268.07-0.3L268.07-0.3Q270.32-0.8 272.2-2.18 274.07-3.55 275.45-5.6 276.82-7.65 277.6-10.25 278.37-12.85 278.37-15.8L278.37-15.8Q278.37-17.1 278.22-17.85 278.07-18.6 277.72-19.15L277.72-19.15Q275.52-18.5 273.8-17.05 272.07-15.6 270.82-14Z" opacity="1" transform="matrix(1,0,0,1,0,0)" fill="#0080ff" class="undefined-text-0" data-fill-palette-color="primary" id="text-0"></path></svg></g></svg></g></svg></g></svg></g><g transform="matrix(1,0,0,1,73.11577931770799,0)"><svg viewBox="0 0 45.76844136458402 57.76130100273472" height="57.76130100273472" width="45.76844136458402"><g><svg xmlns="http://www.w3.org/2000/svg" xmlns:xlink="http://www.w3.org/1999/xlink" version="1.1" x="0" y="0" viewBox="-250.70001220703125 140.98709106445312 63.399993896484375 80.01290893554688" enable-background="new -269 131 100 100" xml:space="preserve" height="57.76130100273472" width="45.76844136458402" class="icon-icon-0" data-fill-palette-color="accent" id="icon-0"><path d="M-200.1 163.7l-1-0.8c-1.2-1-3.1-0.6-3.8 0.8-0.3 0.7-0.6 7.7-0.6 8.9 0 0.2 0 0.6 0 0.7 0 1-0.9 1.8-1.9 1.6-0.8-0.1-1.4-0.9-1.4-1.7-0.1-12-3.7-20.4-10.5-26.7-4.1-3.8-9-7.2-10.5-4.6-0.4 0.7 0.2 2.2 0.9 4.1 1.4 4.3-2.9 11.2-9 18.1-5.7 6.5-12.8 14.5-12.8 26.4 0 16 15.1 30.5 31.7 30.5 16.6 0 31.7-14.5 31.7-30.5C-187.3 180.4-192.1 170.4-200.1 163.7zM-219 215.2c-7.2 0-13.1-5.9-13.1-13.1 0-3.6 1.4-6.8 3.8-9.2l7.2-8.6c1.1-1.3 3.2-1.3 4.3 0l7.2 8.6c2.3 2.4 3.8 5.6 3.8 9.2C-205.9 209.3-211.8 215.2-219 215.2z" fill="#15aae4" data-fill-palette-color="accent"></path></svg></g></svg></g><g></g></svg></g></svg></g></svg></g></svg></g><defs></defs></svg><rect width="320" height="360" fill="none" stroke="none" visibility="hidden"></rect></g></svg></g></svg>